<?xml version="1.0" encoding="utf-8"?>
<!DOCTYPE svg PUBLIC "-//W3C//DTD SVG 1.1//EN" "http://www.w3.org/Graphics/SVG/1.1/DTD/svg11.dtd">
<svg version="1.1" xmlns="http://www.w3.org/2000/svg" xmlns:xlink="http://www.w3.org/1999/xlink" x="0px" y="0px" viewBox="0 0 1000 1000" enable-background="new 0 0 1000 1000" xml:space="preserve">
<g><g transform="translate(0.000000,511.000000) scale(0.100000,-0.100000)"><path d="M4412.5,4978.5C2537,4750.7,946.8,3452.8,353.1,1662.4C-415.5-645.8,615.4-3156.4,2783.2-4256.4c1399.2-711.1,3033.1-711.1,4432.2,0c941.2,478.7,1673,1210.4,2151.7,2151.7c1132.2,2229.9,409.6,4936.2-1686.8,6319.2c-444.1,292.3-1090.8,566.1-1617.8,683.5C5558.5,5008.4,4925.7,5040.6,4412.5,4978.5z M5153.5,2790c43.7-20.7,105.8-75.9,140.4-119.7c57.5-76,62.1-99,69-372.8l9.2-292.3l117.3-29.9c64.4-16.1,209.4-75.9,324.5-133.5c174.9-87.5,246.2-140.4,428-324.5c338.3-340.6,485.6-662.8,529.3-1164.4c11.5-142.7,48.3-481,80.5-750.2l57.5-490.2l80.5-66.7c110.4-92.1,156.5-188.7,158.8-340.6c2.3-145-27.6-195.6-140.4-243.9c-110.4-43.7-3907.5-43.7-4018,0c-112.8,48.3-142.7,98.9-140.4,243.9c2.3,151.9,48.3,248.6,158.8,340.6l80.5,66.7l55.2,481c32.2,266.9,69,605.2,82.8,757.1c48.3,515.5,188.7,826.1,529.3,1164.4c237,239.3,457.9,375.1,729.5,451l140.4,39.1l9.2,292.3c6.9,273.9,11.5,296.9,69,372.8C4817.5,2817.6,4992.4,2863.6,5153.5,2790z M5632.2-2044.9c-85.2-508.6-669.7-722.6-1063.2-388.9c-82.8,69-179.5,255.5-202.5,388.9l-13.8,85.1h646.7H5646L5632.2-2044.9z"/></g></g>
</svg>