<svg xmlns="http://www.w3.org/2000/svg" width="512" height="512" class="fl-svgdocument" overflow="visible"><g fill-rule="evenodd" clip-rule="evenodd"><path d="M146.628 165.873c4.307 7.57 8.43 14.792 12.541 22.035 11.694 20.59 23.361 41.196 35.127 61.751.617 1.074 1.917 2.133 3.094 2.457 63.674 17.327 127.368 34.576 191.068 51.8 1.722.468 2.822 1.25 3.66 2.935 4.836 9.787 9.837 19.501 14.772 29.236.4.797.765 1.63 1.387 2.95-3.71-.822-6.985-1.526-10.249-2.281-69.646-16.196-139.282-32.403-208.929-48.573-1.66-.38-2.714-1.115-3.5-2.714a38279.646 38279.646 0 00-50.053-100.82c-.786-1.578-.71-2.627.34-4.02 3.556-4.723 6.974-9.56 10.742-14.756z" fill="#24b3ab"/><path d="M122.867 197.358c1.254 2.783 2.34 5.145 3.378 7.523 17.715 40.359 35.446 80.707 53.096 121.098.757 1.724 1.676 2.556 3.502 2.907 24.611 4.767 49.211 9.587 73.811 14.413 34.485 6.756 68.969 13.527 103.459 20.288 17.46 3.426 34.916 6.853 52.378 10.273 1.005.19 2.004.438 3.718.816-1.314.611-2.043.979-2.784 1.276-14.84 6.069-29.755 11.986-44.487 18.282-4.01 1.713-7.599.498-11.295-.075-29.437-4.632-58.868-9.41-88.294-14.132-31.772-5.102-63.538-10.22-95.31-15.284-1.67-.259-2.501-1.005-3.128-2.599a89369.694 89369.694 0 00-57.804-148.13c-.567-1.464-.584-2.491.427-3.815 3.113-4.091 6.063-8.317 9.333-12.84z" fill="#1a918b"/><path d="M382.02 274.82c-7.275-2.243-13.857-4.265-20.44-6.313-51.124-15.904-102.232-31.83-153.372-47.665-2.437-.751-4.01-1.973-5.393-4.091a12293.274 12293.274 0 00-43.153-65.797c-1.119-1.686-1.097-2.723.103-4.318 4.685-6.241 9.203-12.608 14.024-19.255.686.838 1.27 1.524 1.826 2.237 12.425 16.132 24.827 32.28 37.311 48.358.903 1.156 2.292 2.2 3.67 2.685a52591.97 52591.97 0 00140.293 49.525c2.357.827 3.73 2.118 4.826 4.307 6.172 12.397 12.484 24.724 18.742 37.078.427.854.822 1.719 1.562 3.248z" fill="#34d1c9"/><path d="M102.939 223.308c2.94 8.398 5.69 16.224 8.436 24.06 17.104 48.951 34.225 97.903 51.28 146.876.725 2.08 1.66 2.929 3.94 3.205 20.547 2.486 41.083 5.128 61.614 7.755 21.4 2.729 42.801 5.49 64.208 8.22 4.793.61 9.57 1.161 14.359 1.767 1.253.162 2.502.405 4.56.75-1.47.682-2.193 1.055-2.955 1.368-17.926 7.317-35.895 14.554-53.756 22.028-3.572 1.497-6.923.605-10.328.324-18.271-1.605-36.521-3.383-54.777-5.112-10.835-1.027-21.67-2.032-32.49-3.21-.827-.082-1.935-1.325-2.227-2.238-4.874-15.272-9.63-30.577-14.44-45.87-15.153-48.223-30.307-96.44-45.552-144.624-.692-2.194-.508-3.718.902-5.474 2.416-3.016 4.583-6.199 7.226-9.825z" fill="#106964"/><path d="M214.005 74.68c7.198 6.344 13.932 12.516 20.952 18.347 2.567 2.134 5.69 3.723 8.766 5.096 22.249 9.938 44.53 19.774 66.828 29.599 1.838.81 3.124 1.902 4.054 3.761 8.057 16.062 16.223 32.064 24.351 48.082.313.616.557 1.27 1.005 2.286-1.005-.314-1.713-.476-2.389-.746-36.002-14.278-72-28.561-107.981-42.877-1.103-.438-2.26-1.06-3.06-1.913-10.392-11.203-20.724-22.455-31.074-33.701-.291-.314-.53-.676-.875-1.14 6.442-8.89 12.857-17.743 19.423-26.795z" fill="#34d1c9"/><path d="M187.753 466.404c-14.57 5.94-29.14 11.862-43.963 17.899-1.854-6.89-3.67-13.543-5.442-20.201-18.537-69.574-37.062-139.154-55.653-208.717-.486-1.827-.319-3.167.886-4.572 1.173-1.362 2.173-2.88 3.567-4.75 1.994 6.96 3.853 13.402 5.68 19.86 18.472 65.04 36.943 130.085 55.382 195.147.449 1.589 1.114 2.254 2.816 2.362 11.392.648 22.773 1.41 34.166 2.145.848.054 1.691.184 2.534.287.011.189.022.362.027.54z" fill="#0b4d49"/><path d="M282.743 68.734c-15.732-8.636-33.004-14.424-47.514-25.962a46213.9 46213.9 0 0120.622-28.48c9.23 18.196 18.278 36.03 27.33 53.87-.152.194-.298.383-.438.572z" fill="#34d1c9"/></g></svg>