<svg xmlns="http://www.w3.org/2000/svg" width="512" height="512" class="fl-svgdocument" overflow="visible"><g fill-rule="evenodd" clip-rule="evenodd"><path d="M207.394 171.379c2.052 3.608 4.017 7.05 5.977 10.502 5.574 9.814 11.135 19.636 16.743 29.433.294.512.913 1.017 1.474 1.17 30.35 8.26 60.708 16.481 91.07 24.69.82.224 1.344.596 1.744 1.4 2.305 4.664 4.689 9.294 7.04 13.934.192.38.365.777.662 1.407-1.769-.392-3.33-.728-4.885-1.088-33.196-7.72-66.387-15.444-99.582-23.151-.792-.182-1.294-.532-1.669-1.294-7.93-16.03-15.88-32.049-23.856-48.054-.375-.752-.338-1.252.161-1.916 1.696-2.251 3.325-4.557 5.12-7.033z" fill="#24b3ab"/><path d="M196.068 186.386c.598 1.326 1.116 2.452 1.61 3.585 8.444 19.237 16.895 38.468 25.308 57.72.36.821.798 1.218 1.669 1.385 11.73 2.272 23.455 4.57 35.18 6.87 16.437 3.22 32.873 6.447 49.312 9.67 8.323 1.633 16.643 3.266 24.965 4.896.48.09.956.209 1.772.39-.626.29-.973.465-1.326.607-7.074 2.893-14.183 5.713-21.205 8.714-1.91.817-3.621.237-5.383-.036-14.03-2.207-28.059-4.485-42.084-6.736-15.143-2.431-30.284-4.87-45.427-7.284-.796-.124-1.193-.48-1.492-1.24a42596.409 42596.409 0 00-27.55-70.603c-.271-.698-.279-1.187.203-1.818 1.484-1.95 2.89-3.964 4.448-6.12z" fill="#1a918b"/><path d="M319.588 223.306c-3.467-1.069-6.604-2.032-9.741-3.008-24.368-7.581-48.727-15.172-73.102-22.72-1.162-.357-1.912-.94-2.571-1.95a5859.361 5859.361 0 00-20.568-31.36c-.533-.803-.523-1.298.049-2.058 2.233-2.975 4.387-6.01 6.684-9.178.327.4.606.727.87 1.067 5.923 7.689 11.834 15.385 17.784 23.048.43.552 1.093 1.049 1.75 1.28 22.278 7.898 44.564 15.77 66.868 23.605 1.123.394 1.777 1.01 2.3 2.053 2.942 5.91 5.95 11.785 8.933 17.673.203.407.392.82.744 1.548z" fill="#34d1c9"/><path d="M186.57 198.754c1.401 4.003 2.712 7.733 4.02 11.468 8.153 23.332 16.314 46.663 24.443 70.006.345.991.79 1.396 1.878 1.527 9.793 1.185 19.581 2.445 29.367 3.696 10.2 1.301 20.4 2.617 30.603 3.918 2.285.291 4.562.554 6.844.843.598.077 1.193.193 2.174.358-.7.324-1.046.502-1.409.651-8.544 3.488-17.109 6.937-25.622 10.5-1.702.713-3.3.288-4.922.154-8.709-.765-17.408-1.613-26.109-2.437-5.164-.49-10.329-.968-15.486-1.53-.394-.039-.922-.631-1.06-1.066-2.324-7.28-4.59-14.574-6.883-21.864a36898.601 36898.601 0 00-21.712-68.932c-.33-1.045-.242-1.772.43-2.609 1.152-1.437 2.184-2.954 3.444-4.683z" fill="#106964"/><path d="M239.507 127.913c3.431 3.024 6.641 5.966 9.987 8.745 1.223 1.017 2.712 1.775 4.178 2.429a6874.526 6874.526 0 0031.853 14.108c.875.386 1.488.907 1.931 1.793 3.841 7.655 7.733 15.282 11.607 22.917.15.293.265.605.48 1.09-.48-.15-.817-.227-1.14-.356a49716.375 49716.375 0 01-51.467-20.437c-.525-.208-1.077-.505-1.458-.912-4.953-5.34-9.878-10.702-14.81-16.062-.14-.15-.253-.322-.418-.544 3.07-4.237 6.128-8.456 9.257-12.77z" fill="#34d1c9"/><path d="M226.995 314.621c-6.944 2.831-13.889 5.654-20.954 8.532-.884-3.285-1.75-6.456-2.594-9.629-8.835-33.161-17.665-66.325-26.526-99.48-.232-.872-.152-1.51.423-2.18.558-.65 1.035-1.373 1.7-2.264.95 3.317 1.836 6.388 2.707 9.466 8.804 31 17.608 62.003 26.397 93.013.214.757.53 1.074 1.342 1.126 5.43.309 10.854.672 16.284 1.022.405.026.806.088 1.208.137.005.09.01.172.013.257z" fill="#0b4d49"/><path d="M272.27 125.08c-7.498-4.117-15.73-6.876-22.646-12.375 3.235-4.472 6.46-8.925 9.829-13.575 4.4 8.673 8.711 17.173 13.026 25.676a15.56 15.56 0 00-.209.273z" fill="#34d1c9"/></g><path fill="#3a3a3a" text-anchor="middle" font-size="100" letter-spacing="0" font-family="Montserrat" font-weight="700" d="M115.33 358.732q9.87 0 15.684 5.814 5.815 5.815 5.815 17.444v30.098h-15.245v-27.753q0-6.254-2.59-9.333-2.589-3.078-7.377-3.078-5.375 0-8.502 3.47-3.127 3.468-3.127 10.309v26.385H84.743v-27.753q0-12.41-9.967-12.41-5.277 0-8.404 3.468-3.127 3.47-3.127 10.31v26.385H48v-52.574h14.56v6.058q2.932-3.322 7.183-5.081 4.25-1.76 9.332-1.76 5.57 0 10.066 2.2 4.495 2.198 7.231 6.4 3.225-4.104 8.16-6.352 4.935-2.247 10.798-2.247zm60.783 54.138q-8.307 0-14.903-3.47-6.596-3.469-10.31-9.625-3.713-6.157-3.713-13.974 0-7.818 3.714-13.974 3.713-6.157 10.31-9.626 6.595-3.47 14.902-3.47 8.306 0 14.853 3.47 6.548 3.47 10.261 9.626 3.714 6.156 3.714 13.974 0 7.817-3.714 13.974-3.713 6.156-10.26 9.625-6.548 3.47-14.854 3.47zm0-12.509q5.863 0 9.625-3.958 3.763-3.957 3.763-10.602 0-6.645-3.763-10.603-3.762-3.958-9.625-3.958-5.864 0-9.675 3.958-3.81 3.958-3.81 10.603t3.81 10.602q3.811 3.958 9.675 3.958zm70.945-41.63q9.773 0 15.783 5.864 6.01 5.863 6.01 17.395v30.098h-15.245v-27.753q0-6.254-2.736-9.333-2.737-3.078-7.916-3.078-5.765 0-9.186 3.567-3.42 3.567-3.42 10.603v25.994h-15.244v-52.574h14.56v6.156q3.03-3.322 7.525-5.13 4.495-1.808 9.87-1.808zm87.657 27.265q0 .293-.294 4.104H294.65q1.075 4.887 5.081 7.72 4.007 2.834 9.968 2.834 4.104 0 7.28-1.221 3.176-1.222 5.912-3.86l8.111 8.795q-7.427 8.502-21.694 8.502-8.893 0-15.733-3.47-6.84-3.469-10.554-9.625-3.713-6.157-3.713-13.974 0-7.72 3.664-13.926 3.665-6.205 10.065-9.674 6.401-3.47 14.317-3.47 7.72 0 13.974 3.323 6.254 3.323 9.82 9.528 3.568 6.206 3.568 14.414zm-27.265-15.733q-5.179 0-8.697 2.932-3.518 2.931-4.3 8.013h25.897q-.782-4.984-4.3-7.964-3.518-2.981-8.6-2.981zm75.734-30.685h15.245v72.51h-14.56v-6.059q-5.668 6.84-16.418 6.84-7.427 0-13.436-3.322-6.01-3.323-9.43-9.479-3.42-6.156-3.42-14.267t3.42-14.268q3.42-6.156 9.43-9.479 6.01-3.322 13.436-3.322 10.066 0 15.733 6.352v-25.506zm-13.094 60.783q5.765 0 9.576-3.958 3.812-3.957 3.812-10.602 0-6.645-3.812-10.603-3.81-3.958-9.576-3.958-5.864 0-9.675 3.958-3.81 3.958-3.81 10.603t3.81 10.602q3.811 3.958 9.675 3.958zM464 385.996q0 .293-.293 4.104h-39.773q1.075 4.887 5.082 7.72 4.006 2.834 9.967 2.834 4.105 0 7.28-1.221 3.177-1.222 5.913-3.86l8.11 8.795q-7.426 8.502-21.694 8.502-8.892 0-15.733-3.47-6.84-3.469-10.554-9.625-3.713-6.157-3.713-13.974 0-7.72 3.665-13.926 3.664-6.205 10.065-9.674 6.4-3.47 14.316-3.47 7.72 0 13.974 3.323 6.254 3.323 9.821 9.528Q464 377.788 464 385.996zm-27.264-15.733q-5.18 0-8.697 2.932-3.518 2.931-4.3 8.013h25.896q-.782-4.984-4.3-7.964-3.518-2.981-8.6-2.981z"/></svg>