<svg xmlns="http://www.w3.org/2000/svg" width="512" height="512" class="fl-svgdocument" overflow="visible"><path fill="#f8f8f8" text-anchor="middle" font-size="100" letter-spacing="0" font-family="Montserrat" font-weight="700" d="M115.33 358.732q9.87 0 15.684 5.814 5.815 5.815 5.815 17.444v30.098h-15.245v-27.753q0-6.254-2.59-9.333-2.589-3.078-7.377-3.078-5.375 0-8.502 3.47-3.127 3.468-3.127 10.309v26.385H84.743v-27.753q0-12.41-9.967-12.41-5.277 0-8.404 3.468-3.127 3.47-3.127 10.31v26.385H48v-52.574h14.56v6.058q2.932-3.322 7.183-5.081 4.25-1.76 9.332-1.76 5.57 0 10.066 2.2 4.495 2.198 7.231 6.4 3.225-4.104 8.16-6.352 4.935-2.247 10.798-2.247zm60.783 54.138q-8.307 0-14.903-3.47-6.596-3.469-10.31-9.625-3.713-6.157-3.713-13.974 0-7.818 3.714-13.974 3.713-6.157 10.31-9.626 6.595-3.47 14.902-3.47 8.306 0 14.853 3.47 6.548 3.47 10.261 9.626 3.714 6.156 3.714 13.974 0 7.817-3.714 13.974-3.713 6.156-10.26 9.625-6.548 3.47-14.854 3.47zm0-12.509q5.863 0 9.625-3.958 3.763-3.957 3.763-10.602 0-6.645-3.763-10.603-3.762-3.958-9.625-3.958-5.864 0-9.675 3.958-3.81 3.958-3.81 10.603t3.81 10.602q3.811 3.958 9.675 3.958zm70.945-41.63q9.773 0 15.783 5.864 6.01 5.863 6.01 17.395v30.098h-15.245v-27.753q0-6.254-2.736-9.333-2.737-3.078-7.916-3.078-5.765 0-9.186 3.567-3.42 3.567-3.42 10.603v25.994h-15.244v-52.574h14.56v6.156q3.03-3.322 7.525-5.13 4.495-1.808 9.87-1.808zm87.657 27.265q0 .293-.294 4.104H294.65q1.075 4.887 5.081 7.72 4.007 2.834 9.968 2.834 4.104 0 7.28-1.221 3.176-1.222 5.912-3.86l8.111 8.795q-7.427 8.502-21.694 8.502-8.893 0-15.733-3.47-6.84-3.469-10.554-9.625-3.713-6.157-3.713-13.974 0-7.72 3.664-13.926 3.665-6.205 10.065-9.674 6.401-3.47 14.317-3.47 7.72 0 13.974 3.323 6.254 3.323 9.82 9.528 3.568 6.206 3.568 14.414zm-27.265-15.733q-5.179 0-8.697 2.932-3.518 2.931-4.3 8.013h25.897q-.782-4.984-4.3-7.964-3.518-2.981-8.6-2.981zm75.734-30.685h15.245v72.51h-14.56v-6.059q-5.668 6.84-16.418 6.84-7.427 0-13.436-3.322-6.01-3.323-9.43-9.479-3.42-6.156-3.42-14.267t3.42-14.268q3.42-6.156 9.43-9.479 6.01-3.322 13.436-3.322 10.066 0 15.733 6.352v-25.506zm-13.094 60.783q5.765 0 9.576-3.958 3.812-3.957 3.812-10.602 0-6.645-3.812-10.603-3.81-3.958-9.576-3.958-5.864 0-9.675 3.958-3.81 3.958-3.81 10.603t3.81 10.602q3.811 3.958 9.675 3.958zM464 385.996q0 .293-.293 4.104h-39.773q1.075 4.887 5.082 7.72 4.006 2.834 9.967 2.834 4.105 0 7.28-1.221 3.177-1.222 5.913-3.86l8.11 8.795q-7.426 8.502-21.694 8.502-8.892 0-15.733-3.47-6.84-3.469-10.554-9.625-3.713-6.157-3.713-13.974 0-7.72 3.665-13.926 3.664-6.205 10.065-9.674 6.4-3.47 14.316-3.47 7.72 0 13.974 3.323 6.254 3.323 9.821 9.528Q464 377.788 464 385.996zm-27.264-15.733q-5.18 0-8.697 2.932-3.518 2.931-4.3 8.013h25.896q-.782-4.984-4.3-7.964-3.518-2.981-8.6-2.981z"/></svg>