<?xml version="1.0" encoding="utf-8"?>
<!DOCTYPE svg PUBLIC "-//W3C//DTD SVG 1.1//EN" "http://www.w3.org/Graphics/SVG/1.1/DTD/svg11.dtd">
<svg fill="#CECED1" version="1.1" xmlns="http://www.w3.org/2000/svg" xmlns:xlink="http://www.w3.org/1999/xlink" x="0px"
     y="0px" viewBox="0 0 1000 1000" enable-background="new 0 0 1000 1000" xml:space="preserve">
<g><g transform="translate(0.000000,511.000000) scale(0.100000,-0.100000)"><path d="M1413.9,4741.1c-634.3-92-1174.2-602.8-1292.8-1222.6c-19.4-104.1-24.2-864.3-19.4-2723.6l7.3-2578.4l62.9-162.2c181.6-469.7,491.5-779.6,961.1-961.1l162.2-62.9l1065.2-7.3l1065.2-7.3l782-779.6l779.6-779.6l782,782l779.6,779.6h1004.7c1123.4,0,1181.4,7.3,1501,164.6c266.3,130.7,539.9,406.7,675.5,682.7c181.6,370.4,174.3,249.4,167,3106.2l-7.3,2546.9l-65.4,176.7c-208.2,571.4-665.8,953.9-1246.8,1043.5C8379.2,4770.1,1624.6,4772.6,1413.9,4741.1z M8645.5,4193.9c184-55.7,309.9-135.6,455.2-288.1c147.7-154.9,232.4-326.8,268.7-544.7c19.4-108.9,24.2-895.8,19.4-2578.4l-7.3-2421l-53.3-140.4c-104.1-278.4-336.5-518.1-605.3-624.6c-140.4-58.1-147.7-58.1-1266.2-65.4L6331-2476l-665.8-663.4l-665.8-665.8l-665.8,665.8l-665.8,665.8H2590.5c-835.2,0-1106.4,7.3-1200.8,33.9c-377.7,99.3-677.9,414-757.8,789.2c-21.8,99.3-26.6,772.3-21.8,2614.7l7.3,2481.5l55.7,133.2c123.5,288.1,346.2,501.2,634.3,605.3c130.7,46,215.5,46,3670.3,48.4C8158.9,4232.7,8526.9,4227.8,8645.5,4193.9z"/></g></g>
</svg>